<svg width="157" height="11" viewBox="0 0 157 11" fill="none" xmlns="http://www.w3.org/2000/svg">
<g clip-path="url(#clip0_1928_4853)">
<path d="M87.5777 5.64667L78.4256 0.366666L69.2734 5.64667L78.4256 11L87.5777 5.64667Z" fill="#575757"/>
<path d="M112.356 5.64669L106.701 2.34669L100.971 5.64669L106.701 9.02002L112.356 5.64669Z" fill="#575757"/>
<path d="M101.12 5.64669L95.3905 2.34669L89.6611 5.64669L95.3905 9.02002L101.12 5.64669Z" fill="#575757"/>
<path d="M67.1158 5.64669L61.4608 2.34669L55.7314 5.64669L61.4608 9.02002L67.1158 5.64669Z" fill="#575757"/>
<path d="M55.8802 5.64669L50.1508 2.34669L44.4214 5.64669L50.1508 9.02002L55.8802 5.64669Z" fill="#575757"/>
<path d="M38.7662 5.05997L0.223034 5.49997C0.148626 5.49997 0.0742188 5.57331 0.0742188 5.64664C0.0742188 5.79331 0.148626 5.86664 0.223034 5.86664L38.7662 6.30664C39.1382 6.30664 39.4358 6.01331 39.4358 5.71997C39.4358 5.35331 39.1382 5.05997 38.7662 5.05997Z" fill="#575757"/>
<path d="M43.0073 5.64664C43.0073 5.13331 42.5609 4.76664 42.0401 4.76664C41.5192 4.76664 41.0728 5.13331 41.0728 5.64664C41.0728 6.15998 41.5192 6.59998 42.0401 6.59998C42.5609 6.59998 43.0073 6.15998 43.0073 5.64664Z" fill="#575757"/>
<path d="M118.383 6.30664L156.926 5.86664C157 5.86664 157.075 5.79331 157.075 5.64664C157.075 5.57331 157 5.49997 156.926 5.49997L118.383 5.05997C118.011 5.05997 117.713 5.35331 117.713 5.64664C117.713 6.01331 118.011 6.30664 118.383 6.30664Z" fill="#575757"/>
<path d="M115.406 5.64664C115.406 5.13331 115.034 4.76664 114.513 4.76664C113.918 4.76664 113.546 5.13331 113.546 5.64664C113.546 6.15998 113.918 6.59998 114.513 6.59998C115.034 6.59998 115.406 6.15998 115.406 5.64664Z" fill="#575757"/>
</g>
<defs>
<clipPath id="clip0_1928_4853">
<rect width="157" height="11" fill="white" transform="matrix(1 0 0 -1 0 11)"/>
</clipPath>
</defs>
</svg>
