<svg width="24" height="24" viewBox="0 0 24 24" fill="none" xmlns="http://www.w3.org/2000/svg">
<path fill-rule="evenodd" clip-rule="evenodd" d="M9.76539 2.99783C10.0468 2.68357 10.3913 2.43219 10.7764 2.26008C11.1615 2.08798 11.5786 1.99902 12.0004 1.99902C12.4222 1.99902 12.8393 2.08798 13.2244 2.26008C13.6095 2.43219 13.954 2.68357 14.2354 2.99783L14.9354 3.77983C15.0354 3.89174 15.1594 3.97969 15.298 4.03716C15.4367 4.09463 15.5865 4.12015 15.7364 4.11183L16.7864 4.05383C17.2074 4.03071 17.6286 4.09661 18.0225 4.24723C18.4164 4.39785 18.774 4.62982 19.0722 4.928C19.3704 5.22617 19.6024 5.58386 19.753 5.97772C19.9036 6.37159 19.9695 6.79278 19.9464 7.21383L19.8884 8.26383C19.8802 8.41354 19.9058 8.56316 19.9633 8.70164C20.0207 8.84012 20.1086 8.9639 20.2204 9.06383L21.0034 9.76383C21.3178 10.0452 21.5693 10.3898 21.7415 10.775C21.9137 11.1602 22.0028 11.5774 22.0028 11.9993C22.0028 12.4213 21.9137 12.8385 21.7415 13.2237C21.5693 13.6089 21.3178 13.9534 21.0034 14.2348L20.2204 14.9348C20.1085 15.0349 20.0205 15.1588 19.9631 15.2975C19.9056 15.4361 19.8801 15.586 19.8884 15.7358L19.9464 16.7858C19.9695 17.2069 19.9036 17.6281 19.753 18.0219C19.6024 18.4158 19.3704 18.7735 19.0722 19.0717C18.774 19.3698 18.4164 19.6018 18.0225 19.7524C17.6286 19.9031 17.2074 19.969 16.7864 19.9458L15.7364 19.8878C15.5867 19.8797 15.4371 19.9053 15.2986 19.9627C15.1601 20.0202 15.0363 20.1081 14.9364 20.2198L14.2364 21.0028C13.955 21.3173 13.6105 21.5688 13.2252 21.741C12.84 21.9132 12.4228 22.0022 12.0009 22.0022C11.5789 22.0022 11.1617 21.9132 10.7765 21.741C10.3913 21.5688 10.0468 21.3173 9.76539 21.0028L9.06539 20.2198C8.96535 20.1079 8.84141 20.02 8.70274 19.9625C8.56408 19.905 8.41426 19.8795 8.26439 19.8878L7.21439 19.9458C6.79334 19.969 6.37215 19.9031 5.97828 19.7524C5.58442 19.6018 5.22673 19.3698 4.92855 19.0717C4.63038 18.7735 4.39841 18.4158 4.24779 18.0219C4.09716 17.6281 4.03126 17.2069 4.05439 16.7858L4.11239 15.7358C4.12056 15.5861 4.09497 15.4365 4.0375 15.298C3.98003 15.1595 3.89216 15.0358 3.78039 14.9358L2.99839 14.2358C2.68397 13.9544 2.43244 13.6099 2.26024 13.2247C2.08803 12.8395 1.99902 12.4223 1.99902 12.0003C1.99902 11.5784 2.08803 11.1612 2.26024 10.776C2.43244 10.3908 2.68397 10.0462 2.99839 9.76483L3.78039 9.06483C3.8923 8.96479 3.98025 8.84085 4.03772 8.70219C4.09519 8.56352 4.12071 8.4137 4.11239 8.26383L4.05439 7.21383C4.03126 6.79278 4.09716 6.37159 4.24779 5.97772C4.39841 5.58386 4.63038 5.22617 4.92855 4.928C5.22673 4.62982 5.58442 4.39785 5.97828 4.24723C6.37215 4.09661 6.79334 4.03071 7.21439 4.05383L8.26439 4.11183C8.41409 4.12 8.56372 4.09441 8.7022 4.03694C8.84068 3.97947 8.96446 3.8916 9.06439 3.77983L9.76439 2.99783H9.76539ZM15.7074 8.29283C15.8949 8.48036 16.0002 8.73467 16.0002 8.99983C16.0002 9.26499 15.8949 9.5193 15.7074 9.70683L9.70739 15.7068C9.51879 15.889 9.26618 15.9898 9.00399 15.9875C8.74179 15.9852 8.49098 15.8801 8.30557 15.6946C8.12016 15.5092 8.01499 15.2584 8.01271 14.9962C8.01044 14.734 8.11123 14.4814 8.29339 14.2928L14.2934 8.29283C14.4809 8.10536 14.7352 8.00004 15.0004 8.00004C15.2656 8.00004 15.5199 8.10536 15.7074 8.29283ZM9.50039 7.99983C9.10256 7.99983 8.72103 8.15787 8.43973 8.43917C8.15842 8.72047 8.00039 9.10201 8.00039 9.49983V9.50983C8.00039 9.90766 8.15842 10.2892 8.43973 10.5705C8.72103 10.8518 9.10256 11.0098 9.50039 11.0098H9.51039C9.90821 11.0098 10.2897 10.8518 10.571 10.5705C10.8524 10.2892 11.0104 9.90766 11.0104 9.50983V9.49983C11.0104 9.10201 10.8524 8.72047 10.571 8.43917C10.2897 8.15787 9.90821 7.99983 9.51039 7.99983H9.50039ZM14.5004 12.9998C14.1026 12.9998 13.721 13.1579 13.4397 13.4392C13.1584 13.7205 13.0004 14.102 13.0004 14.4998V14.5098C13.0004 14.9077 13.1584 15.2892 13.4397 15.5705C13.721 15.8518 14.1026 16.0098 14.5004 16.0098H14.5104C14.9082 16.0098 15.2897 15.8518 15.571 15.5705C15.8524 15.2892 16.0104 14.9077 16.0104 14.5098V14.4998C16.0104 14.102 15.8524 13.7205 15.571 13.4392C15.2897 13.1579 14.9082 12.9998 14.5104 12.9998H14.5004Z" fill="black"/>
</svg>
